# xmcd CD database file
#
# Track frame offsets:
#	150
#	24102
#	46202
#	70125
#
# Disc length: 1227 seconds
#
# Revision: 0
# Processed by: cddbd v1.5PL3 Copyright (c) Steve Scherf et al.
# Submitted via: CDex 1.51
#
DISCID=2604c904
DTITLE=松田博幸 - 君のこと、君以外のこと
DYEAR=1996
DGENRE=JPop
TTITLE0=君のこと、君以外のこと
TTITLE1=雨あがり
TTITLE2=君のこと、君以外のこと(Instrumental)
TTITLE3=雨あがり(Instrumental)
EXTD=YEAR: 1996
EXTT0=
EXTT1=
EXTT2=
EXTT3=
PLAYORDER=
